<?xml version="1.0" encoding="UTF-8" standalone="no"?>
<!DOCTYPE svg PUBLIC "-//W3C//DTD SVG 1.1//EN" "http://www.w3.org/Graphics/SVG/1.1/DTD/svg11.dtd">
<svg xmlns:xl="http://www.w3.org/1999/xlink" version="1.1" xmlns:dc="http://purl.org/dc/elements/1.1/" xmlns="http://www.w3.org/2000/svg" viewBox="0 0 1024 1024" width="1024" height="1024">
  <defs/>
  <g id="Canvas_1" stroke-dasharray="none" stroke="none" fill-opacity="1" stroke-opacity="1" fill="none">
    <title>GraphIcon</title>
    <g id="Canvas_1_Chart">
      <title>Chart</title>
      <g id="Graphic_28">
        <path d="M 338.1766 385.40446 L 120.21757 696.6822 L 120.21757 696.6822 C 107.54647 714.7784 111.94439 739.7203 130.0406 752.3914 C 148.1368 765.0625 173.07863 760.6646 185.74973 742.56835 L 380.7657 464.05665 L 518.38327 560.4175 C 536.4795 573.0886 561.4213 568.6907 574.0924 550.5945 L 764.5198 278.636 L 848.0733 337.1408 C 866.1695 349.8119 891.1113 345.41397 903.7824 327.31777 C 916.4535 309.22156 912.0556 284.27973 893.9594 271.60863 L 777.6398 190.16077 C 759.5436 177.48967 734.6018 181.88759 721.9307 199.9838 C 721.7622 200.22442 721.5967 200.46625 721.4343 200.70925 C 721.39095 200.7776 721.343 200.84264 721.2952 200.90788 C 721.1225 201.14353 720.9519 201.3816 720.7835 201.6221 L 531.5033 471.9423 L 393.88576 375.58143 C 375.78955 362.91033 350.8477 367.30825 338.1766 385.40446 Z M 393.88576 375.58143 Z" fill="white"/>
      </g>
    </g>
  </g>
</svg>
