<?xml version="1.0" encoding="UTF-8" standalone="no"?>
<!DOCTYPE svg PUBLIC "-//W3C//DTD SVG 1.1//EN" "http://www.w3.org/Graphics/SVG/1.1/DTD/svg11.dtd">
<svg xmlns:dc="http://purl.org/dc/elements/1.1/" xmlns:xl="http://www.w3.org/1999/xlink" version="1.1" xmlns="http://www.w3.org/2000/svg" viewBox="0 0 1024 1024" width="1024" height="1024">
  <defs/>
  <g id="Canvas_1" fill-opacity="1" stroke="none" stroke-dasharray="none" fill="none" stroke-opacity="1">
    <title>Canvas 1</title>
    <g id="Canvas_1_Layer_1">
      <title>Layer 1</title>
      <g id="Graphic_4">
        <path d="M 222.60938 149.99539 C 222.60938 150.99539 161.60937 445.9954 246.60937 527.9954 C 331.60938 609.9954 212.3125 845.6927 211.3125 845.6927 C 210.3125 845.6927 282.60938 1012.9954 339.60938 964.9954 C 396.60938 916.9954 381.60938 731.9954 375.60938 661.9954 C 369.60938 591.9954 330.3125 554.6927 345.3125 501.6927 C 360.3125 448.6927 472.3125 411.6927 563.3125 451.6927 C 654.3125 491.6927 892.3125 426.6927 859.3125 279.6927 C 826.3125 132.69271 339.64583 46.02604 282.3125 91.69271 C 224.97917 137.35938 222.60938 148.99539 222.60938 149.99539 Z M 333.3125 191.6927 L 333.3125 191.6927 C 352.3125 142.6927 483.3125 144.6927 483.3125 144.6927 C 483.3125 144.6927 483.3125 144.6927 553.3125 161.6927 C 623.3125 178.6927 751.3125 264.6927 750.3125 316.6927 C 749.3125 368.6927 573.3125 350.6927 423.3125 351.6927 C 273.3125 352.6927 314.3125 240.6927 333.3125 191.6927 Z" fill="#009193"/>
      </g>
    </g>
  </g>
</svg>
